<?xml version="1.0" encoding="UTF-8"?>
<svg viewBox="0 0 125 125" xmlns="http://www.w3.org/2000/svg" xmlns:xlink="http://www.w3.org/1999/xlink">
 <defs>
  <filter id="j" x="-.09047" y="-.26402" width="1.1809" height="1.528">
   <feGaussianBlur stdDeviation="4.6122"/>
  </filter>
  <linearGradient id="e">
   <stop stop-color="#fff" offset="0"/>
   <stop stop-color="#fff" stop-opacity="0" offset="1"/>
  </linearGradient>
  <linearGradient id="c">
   <stop stop-color="#818181" offset="0"/>
   <stop stop-color="#e4e4e4" offset="1"/>
  </linearGradient>
  <linearGradient id="g" x1="601.47" x2="572.72" y1="462.5" y2="460.1" gradientUnits="userSpaceOnUse">
   <stop stop-color="#666" offset="0"/>
   <stop stop-color="#666" stop-opacity="0" offset="1"/>
  </linearGradient>
  <linearGradient id="i" x1="367.9" x2="319.18" y1="428.17" y2="466.28" gradientTransform="matrix(1.5051 0 0 .77784 9.8897 129.05)" gradientUnits="userSpaceOnUse" xlink:href="#c"/>
  <linearGradient id="h" x1="47.547" x2="37.793" y1="95.941" y2="59.554" gradientUnits="userSpaceOnUse" xlink:href="#e"/>
  <linearGradient id="d" x1="361.68" x2="361.79" y1="350.4" y2="371.05" gradientTransform="matrix(1.4958 0 0 .64676 13.053 177.84)" gradientUnits="userSpaceOnUse" xlink:href="#c"/>
  <radialGradient id="b" cx="485.91" cy="399.68" r="19.82" gradientTransform="matrix(.55967 -.0075595 .01788 1.7315 143.34 -323.32)" gradientUnits="userSpaceOnUse">
   <stop stop-color="#f60" offset="0"/>
   <stop stop-color="#f60" stop-opacity="0" offset="1"/>
  </radialGradient>
  <radialGradient id="a" cx="26.81" cy="22.806" r="15.857" gradientTransform="matrix(-1.6681 -1.3592 .15178 -.18628 68.069 63.494)" gradientUnits="userSpaceOnUse">
   <stop stop-color="#ffe6d5" offset="0"/>
   <stop stop-color="#ffe6d5" stop-opacity="0" offset="1"/>
  </radialGradient>
  <radialGradient id="f" cx="70.796" cy="82.072" r="41.281" gradientTransform="matrix(.050751 -.00016035 .0055976 1.7716 66.744 -63.535)" gradientUnits="userSpaceOnUse" xlink:href="#e"/>
 </defs>
 <g transform="matrix(.82418 0 0 .72063 -388.46 -263.25)">
  <path d="m526.96 486.93-40.969 10.573 78.197 31.352 44.154-19.694-81.382-22.231z" fill-rule="evenodd" filter="url(#j)"/>
  <path d="m498.88 485.95 68.113 28.106-0.16692-87.175-68.2-16.962 0.25458 76.031z" fill="url(#i)" fill-rule="evenodd"/>
  <path transform="matrix(1.2133 0 0 1.3877 480.77 351.48)" d="m14.719 42.125 0.15625 42.719c4.2904-4.2797 11.143-8.07 22.125-9.4375 12.143-1.5121 24.019-1.0717 33.969 0l-0.03125-21.062-56.219-12.219z" fill="url(#h)" fill-rule="evenodd"/>
  <path d="m567 514.09 31.809-12.288-0.05834-81.585c-14.737 5.4558-8.9264 3.9812-32.062 6.6439l0.31127 87.229z" fill="url(#d)" fill-rule="evenodd"/>
  <path d="m567 514.09 31.809-12.288-0.05834-81.585c-14.737 5.4558-8.9264 3.9812-32.062 6.6439l0.31127 87.229z" fill="url(#g)" fill-rule="evenodd"/>
  <path d="m498.27 409.51 37.98-3.9472 62.495 14.659c-14.737 5.4558-8.9264 3.9812-32.062 6.6439l-68.413-17.356z" fill="url(#d)" fill-rule="evenodd"/>
  <g transform="matrix(1.3398 0 0 1.3398 -40.372 -49.248)" fill-rule="evenodd">
   <path transform="matrix(1.2509 0 0 1.4306 382.37 330.56)" d="m42.667 22.806a15.857 4.4138 0 1 1 -31.714 0 15.857 4.4138 0 1 1 31.714 0z"/>
   <path d="m396.07 357.09 39.64-0.03666v6.1049c-1.3685 4.0904-11.747 5.7634-20.177 5.8214-8.1819 0.05671-19.417-2.2026-19.463-6.3537v-5.536z" fill="#a40"/>
   <path d="m396.07 357.09 39.64-0.03666v6.1049c-1.3685 4.0904-11.747 5.7634-20.177 5.8214-8.1819 0.05671-19.417-2.2026-19.463-6.3537v-5.536z" fill="url(#b)"/>
   <path transform="matrix(1.2509 0 0 1.4306 382.34 324.52)" d="m42.667 22.806a15.857 4.4138 0 1 1 -31.714 0 15.857 4.4138 0 1 1 31.714 0z" fill="#a40"/>
   <path transform="matrix(1.2133 0 0 1.3877 383.35 324.82)" d="m42.667 22.806a15.857 4.4138 0 1 1 -31.714 0 15.857 4.4138 0 1 1 31.714 0z" fill="#ffb380"/>
   <path transform="matrix(1.2133 0 0 1.3877 383.35 324.82)" d="m42.667 22.806a15.857 4.4138 0 1 1 -31.714 0 15.857 4.4138 0 1 1 31.714 0z" fill="url(#a)"/>
   <path transform="matrix(1.2133 0 0 1.3877 480.77 351.48)" d="m-45.773 16.676a0.040868 0.16347 0 1 1 -0.08174 0 0.040868 0.16347 0 1 1 0.08174 0z" fill="#ffe6d5"/>
  </g>
  <g transform="matrix(1.3398 0 0 1.3398 -40.372 -61.092)" fill-rule="evenodd">
   <path transform="matrix(1.2509 0 0 1.4306 382.37 330.56)" d="m42.667 22.806a15.857 4.4138 0 1 1 -31.714 0 15.857 4.4138 0 1 1 31.714 0z"/>
   <path d="m396.07 357.09 39.64-0.03666v6.1049c-1.3685 4.0904-11.747 5.7634-20.177 5.8214-8.1819 0.05671-19.417-2.2026-19.463-6.3537v-5.536z" fill="#a40"/>
   <path d="m396.07 357.09 39.64-0.03666v6.1049c-1.3685 4.0904-11.747 5.7634-20.177 5.8214-8.1819 0.05671-19.417-2.2026-19.463-6.3537v-5.536z" fill="url(#b)"/>
   <path transform="matrix(1.2509 0 0 1.4306 382.34 324.52)" d="m42.667 22.806a15.857 4.4138 0 1 1 -31.714 0 15.857 4.4138 0 1 1 31.714 0z" fill="#a40"/>
   <path transform="matrix(1.2133 0 0 1.3877 383.35 324.82)" d="m42.667 22.806a15.857 4.4138 0 1 1 -31.714 0 15.857 4.4138 0 1 1 31.714 0z" fill="#ffb380"/>
   <path transform="matrix(1.2133 0 0 1.3877 383.35 324.82)" d="m42.667 22.806a15.857 4.4138 0 1 1 -31.714 0 15.857 4.4138 0 1 1 31.714 0z" fill="url(#a)"/>
   <path transform="matrix(1.2133 0 0 1.3877 480.77 351.48)" d="m-45.773 16.676a0.040868 0.16347 0 1 1 -0.08174 0 0.040868 0.16347 0 1 1 0.08174 0z" fill="#ffe6d5"/>
  </g>
  <g transform="matrix(1.3398 0 0 1.3398 -40.372 -72.936)" fill-rule="evenodd">
   <path transform="matrix(1.2509 0 0 1.4306 382.37 330.56)" d="m42.667 22.806a15.857 4.4138 0 1 1 -31.714 0 15.857 4.4138 0 1 1 31.714 0z"/>
   <path d="m396.07 357.09 39.64-0.03666v6.1049c-1.3685 4.0904-11.747 5.7634-20.177 5.8214-8.1819 0.05671-19.417-2.2026-19.463-6.3537v-5.536z" fill="#a40"/>
   <path d="m396.07 357.09 39.64-0.03666v6.1049c-1.3685 4.0904-11.747 5.7634-20.177 5.8214-8.1819 0.05671-19.417-2.2026-19.463-6.3537v-5.536z" fill="url(#b)"/>
   <path transform="matrix(1.2509 0 0 1.4306 382.34 324.52)" d="m42.667 22.806a15.857 4.4138 0 1 1 -31.714 0 15.857 4.4138 0 1 1 31.714 0z" fill="#a40"/>
   <path transform="matrix(1.2133 0 0 1.3877 383.35 324.82)" d="m42.667 22.806a15.857 4.4138 0 1 1 -31.714 0 15.857 4.4138 0 1 1 31.714 0z" fill="#ffb380"/>
   <path transform="matrix(1.2133 0 0 1.3877 383.35 324.82)" d="m42.667 22.806a15.857 4.4138 0 1 1 -31.714 0 15.857 4.4138 0 1 1 31.714 0z" fill="url(#a)"/>
   <path transform="matrix(1.2133 0 0 1.3877 480.77 351.48)" d="m-45.773 16.676a0.040868 0.16347 0 1 1 -0.08174 0 0.040868 0.16347 0 1 1 0.08174 0z" fill="#ffe6d5"/>
  </g>
  <g transform="matrix(1.3398 0 0 1.3398 -40.372 -84.78)" fill-rule="evenodd">
   <path transform="matrix(1.2509 0 0 1.4306 382.37 330.56)" d="m42.667 22.806a15.857 4.4138 0 1 1 -31.714 0 15.857 4.4138 0 1 1 31.714 0z"/>
   <path d="m396.07 357.09 39.64-0.03666v6.1049c-1.3685 4.0904-11.747 5.7634-20.177 5.8214-8.1819 0.05671-19.417-2.2026-19.463-6.3537v-5.536z" fill="#a40"/>
   <path d="m396.07 357.09 39.64-0.03666v6.1049c-1.3685 4.0904-11.747 5.7634-20.177 5.8214-8.1819 0.05671-19.417-2.2026-19.463-6.3537v-5.536z" fill="url(#b)"/>
   <path transform="matrix(1.2509 0 0 1.4306 382.34 324.52)" d="m42.667 22.806a15.857 4.4138 0 1 1 -31.714 0 15.857 4.4138 0 1 1 31.714 0z" fill="#a40"/>
   <path transform="matrix(1.2133 0 0 1.3877 383.35 324.82)" d="m42.667 22.806a15.857 4.4138 0 1 1 -31.714 0 15.857 4.4138 0 1 1 31.714 0z" fill="#ffb380"/>
   <path transform="matrix(1.2133 0 0 1.3877 383.35 324.82)" d="m42.667 22.806a15.857 4.4138 0 1 1 -31.714 0 15.857 4.4138 0 1 1 31.714 0z" fill="url(#a)"/>
   <path transform="matrix(1.2133 0 0 1.3877 480.77 351.48)" d="m-45.773 16.676a0.040868 0.16347 0 1 1 -0.08174 0 0.040868 0.16347 0 1 1 0.08174 0z" fill="#ffe6d5"/>
  </g>
  <path d="m568.3 495.33c10.615-1.3928 20.663-4.0417 29.262-8.6676" fill="none" stroke="#4a4a4a" stroke-linecap="round" stroke-width="1.0627"/>
  <path d="m568.44 501.59c10.813-1.1622 20.382-4.1219 29.052-8.9082" fill="none" stroke="#4a4a4a" stroke-linecap="round" stroke-width="1.0627"/>
  <path d="m568.44 508.46c10.615-1.874 20.452-6.127 29.122-10.352" fill="none" stroke="#4a4a4a" stroke-linecap="round" stroke-width="1.0627"/>
  <path d="m570.85 462.13c1.682-0.1753 2.2706-0.42778 2.9276-0.83464l-0.14497 5.0258c-0.31918 0.36826-1.0484 0.38919-2.8026 0.68027l0.02002-4.8714z" fill="#c8b7b7" fill-rule="evenodd"/>
  <path d="m571.1 462.36c1.682-0.1753 2.2706-0.42778 2.9276-0.83464l-0.14497 5.0258c-0.31918 0.36826-1.0484 0.38919-2.8026 0.68027l0.02002-4.8714z" fill="#365f67" fill-rule="evenodd"/>
  <path d="m568.19 439.33 29.848-7.7129v9.6411l-29.848 8.3367v-10.265z" fill-rule="evenodd"/>
  <path transform="matrix(1.2133 0 0 1.3877 480.77 351.48)" d="m71.89 63.184 24.6-5.5581v6.9476l-24.6 6.0077v-7.3972z" fill="#666" fill-rule="evenodd"/>
  <path d="m568.66 440.04 0.09918 5.8981 28.488-7.5711v-5.7847l-28.587 7.4577z" fill="none" stroke="#000" stroke-width=".12976"/>
  <path d="m597.23 432.79-28.394 7.4076 0.08316 5.6429" fill="none" stroke="#000" stroke-width=".25952"/>
  <g transform="matrix(.36517 0 0 .42548 379.42 264.43)">
   <path d="m568.19 439.33 29.848-7.7129v9.6411l-29.848 8.3367v-10.265z" fill-rule="evenodd"/>
   <path transform="matrix(1.2133 0 0 1.3877 480.77 351.48)" d="m71.89 63.184 24.6-5.5581v6.9476l-24.6 6.0077v-7.3972z" fill="#666" fill-rule="evenodd"/>
   <path d="m568.66 440.04 0.09918 5.8981 28.488-7.5711v-5.7847l-28.587 7.4577z" fill="none" stroke="#000" stroke-width=".12976"/>
   <path d="m597.23 432.79-28.394 7.4076 0.08316 5.6429" fill="none" stroke="#000" stroke-width=".25952"/>
  </g>
  <path transform="matrix(1.2133 0 0 1.3877 480.77 351.48)" d="m14.719 42.125 0.21875 54.781 56.125 20.25v0.03125l26.219-8.875-0.03125-58.781c-12.146 3.9316-7.37 2.8625-26.438 4.7812l-56.094-12.188z" fill="url(#f)" fill-rule="evenodd"/>
 </g>
</svg>
